# xmcd
#
# Track frame offsets:
#	150
#	17975
#	35836
#	48061
#	68295
#	92330
#	107976
#	125188
#	139442
#	150544
#	162949
#	177744
#	200069
#	211790
#	229650
#	252116
#	271842
#	298145
#	312813
#	334024
#
# Disc length: 4580 seconds
#
# Revision: 1
# Processed by: cddbd v1.5.2PL0 Copyright (c) Steve Scherf et al.
# Submitted via: audiograbber 1.83.01
#
DISCID=2411e214
DTITLE=Mr. Da-Nos - Sommer Parade 2009
DYEAR=2009
DGENRE=House
TTITLE0=Mr. Da-Nos - Watch The Sunrise (Original Mix)
TTITLE1=Lady GaGa - Poker Face (Glam As You Club Mix)
TTITLE2=Freemasons - If (Jolyon Petch Remix)
TTITLE3=Bligg - Rosalie (Mr. Da-Nos Remix)
TTITLE4=Selda - Use Your Head (Red Room Remix)
TTITLE5=Whizzkids feat. Inusa Dawuda - Rumours (Digi Digi) (Khetamas Club Edit)
TTITLE6=Cristian Marchi feat. Dot/Comma - Disco Strobe (Marchesini and Farina Rem
TTITLE6=ix)
TTITLE7=Steve Angello and Laidback Luke feat. Robin S. - Show Me Love (Extended M
TTITLE7=ix)
TTITLE8=Dave Kurtis - Last Night In Miami (Original Mix)
TTITLE9=Joe Calabro and Pepper Mashay - I Want You (Mr. Da-Nos Remix)
TTITLE10=Sherrita - I Will Survive (Fancy Clothes Mix)
TTITLE11=4 Strings - Take Me Away (Dave Darell Remix)
TTITLE12=Remady P&R and Jorge Martin S pres. Swiss Society - Danger Zone (Origina
TTITLE12=l Mix)
TTITLE13=Sonic Palms - On The Beach (Extended Mix)
TTITLE14=Mr. Da-Nos feat. Florian - Miss Sunshine (Doc Phatt Remix)
TTITLE15=Jansen feat. Percy Duke - Staring At The Sun (Jansen Remix)
TTITLE16=DJ Antoine - In My Dreams (Chris Crime and Mike Candys Remix)
TTITLE17=Michael Mind feat. Manfred Mann's Earth Band - Blinded By The Light
TTITLE18=Alan Pride - In Heaven (Ortega and Gold Mix)
TTITLE19=Danny Darko - Go Solar! (Original Mix)
EXTD=
EXTT0=
EXTT1=
EXTT2=
EXTT3=
EXTT4=
EXTT5=
EXTT6=
EXTT7=
EXTT8=
EXTT9=
EXTT10=
EXTT11=
EXTT12=
EXTT13=
EXTT14=
EXTT15=
EXTT16=
EXTT17=
EXTT18=
EXTT19=
PLAYORDER=
